<?xml version="1.0" encoding="UTF-8"?>
<!DOCTYPE svg PUBLIC "-//W3C//DTD SVG 1.1//EN" "http://www.w3.org/Graphics/SVG/1.1/DTD/svg11.dtd">
<!-- Creator: CorelDRAW X7 -->
<svg xmlns="http://www.w3.org/2000/svg" xml:space="preserve" width="113.842mm" height="113.842mm" version="1.1" style="shape-rendering:geometricPrecision; text-rendering:geometricPrecision; image-rendering:optimizeQuality; fill-rule:evenodd; clip-rule:evenodd"
viewBox="0 0 7412 7412"
 xmlns:xlink="http://www.w3.org/1999/xlink">
 <defs>
  <style type="text/css">
   <![CDATA[
    .str0 {stroke:white;stroke-width:13.0211}
    .fil0 {fill:#3A3435}
    .fil1 {fill:white}
   ]]>
  </style>
 </defs>
 <g id="Capa_x0020_1">
  <metadata id="CorelCorpID_0Corel-Layer"/>
  <g id="_353267728">
   <rect class="fil0" width="7412" height="7412"/>
   <polygon class="fil1" points="3397,2865 3369,2865 3369,2872 3362,2872 3362,2879 3349,2879 3349,2886 3321,2886 3321,2892 3307,2892 3307,2906 3301,2906 3301,2913 3287,2913 3287,2920 3280,2920 3280,2927 3273,2927 3273,2940 3259,2940 3259,2947 3252,2947 3252,2968 3246,2968 3246,2975 3232,2975 3232,2982 3225,2982 3225,2995 3218,2995 3218,3009 3204,3009 3204,3023 3198,3023 3198,3037 3191,3037 3191,3078 3198,3078 3198,3112 3191,3112 3191,3126 3184,3126 3184,3133 3177,3133 3177,3140 3170,3140 3170,3153 3163,3153 3163,3194 3156,3194 3156,3201 3150,3201 3150,3208 3143,3208 3143,3222 3136,3222 3136,3311 3143,3311 3143,3339 3150,3339 3150,3352 3156,3352 3156,3359 3163,3359 3163,3387 3170,3387 3170,3400 3177,3400 3177,3414 3191,3414 3191,3435 3198,3435 3198,3448 3204,3448 3204,3455 3211,3455 3211,3462 3218,3462 3218,3476 3225,3476 3225,3490 3232,3490 3232,3497 3246,3497 3246,3503 3252,3503 3252,3510 3259,3510 3259,3524 3273,3524 3273,3531 3287,3531 3287,3538 3294,3538 3294,3545 3301,3545 3301,3551 3307,3551 3307,3558 3335,3558 3335,3565 3349,3565 3349,3572 3355,3572 3355,3579 3369,3579 3369,3586 3417,3586 3417,3593 3458,3593 3458,3599 3479,3599 3479,3593 3534,3593 3534,3586 3575,3586 3575,3579 3582,3579 3582,3572 3589,3572 3589,3565 3603,3565 3603,3558 3623,3558 3623,3551 3630,3551 3630,3545 3637,3545 3637,3538 3644,3538 3644,3531 3657,3531 3657,3524 3664,3524 3664,3510 3671,3510 3671,3503 3685,3503 3685,3497 3692,3497 3692,3483 3699,3483 3699,3469 3706,3469 3706,3462 3712,3462 3712,3455 3719,3455 3719,3442 3726,3442 3726,3421 3733,3421 3733,3414 3740,3414 3740,3407 3747,3407 3747,3387 3754,3387 3754,3345 3760,3345 3760,3332 3767,3332 3767,3325 3774,3325 3774,3167 3767,3167 3767,3153 3760,3153 3760,3140 3754,3140 3754,3098 3747,3098 3747,3078 3740,3078 3740,3071 3733,3071 3733,3064 3726,3064 3726,3043 3719,3043 3719,3023 3712,3023 3712,3016 3706,3016 3706,3009 3699,3009 3699,2995 3692,2995 3692,2982 3685,2982 3685,2975 3671,2975 3671,2961 3664,2961 3664,2954 3657,2954 3657,2947 3644,2947 3644,2940 3637,2940 3637,2934 3630,2934 3630,2920 3616,2920 3616,2913 3596,2913 3596,2906 3589,2906 3589,2899 3582,2899 3582,2892 3568,2892 3568,2886 3541,2886 3541,2879 3527,2879 3527,2872 3520,2872 3520,2865 3493,2865 3493,2858 3397,2858 "/>
   <polygon class="fil1 str0" points="4639,3098 4653,3098 4653,3092 4680,3092 4680,3085 4708,3085 4708,3092 4763,3092 4763,3098 4770,3098 4770,3105 4776,3105 4776,3112 4804,3112 4804,3119 4824,3119 4824,3126 4831,3126 4831,3133 4838,3133 4838,3140 4845,3140 4845,3146 4859,3146 4859,3153 4866,3153 4866,3167 4872,3167 4872,3174 4886,3174 4886,3181 4893,3181 4893,3194 4900,3194 4900,3208 4914,3208 4914,3215 4921,3215 4921,3229 4927,3229 4927,3256 4941,3256 4941,3263 4948,3263 4948,3284 4955,3284 4955,3318 4962,3318 4962,3339 4969,3339 4969,3352 4975,3352 4975,3476 4969,3476 4969,3490 4962,3490 4962,3510 4955,3510 4955,3538 4948,3538 4948,3558 4941,3558 4941,3565 4934,3565 4934,3572 4969,3572 4969,3565 4975,3565 4975,3558 4982,3558 4982,3551 4989,3551 4989,3545 5010,3545 5010,3538 5017,3538 5017,3531 5023,3531 5023,3524 5030,3524 5030,3517 5044,3517 5044,3510 5051,3510 5051,3497 5058,3497 5058,3483 5065,3483 5065,3476 5072,3476 5072,3469 5078,3469 5078,3462 5085,3462 5085,3455 5092,3455 5092,3442 5106,3442 5106,3435 5120,3435 5120,3428 5140,3428 5140,3421 5147,3421 5147,3414 5161,3414 5161,3407 5181,3407 5181,3400 5202,3400 5202,3394 5209,3394 5209,3387 5216,3387 5216,3380 5223,3380 5223,3373 5229,3373 5229,3366 5236,3366 5236,3359 5243,3359 5243,3352 5250,3352 5250,3339 5257,3339 5257,3332 5264,3332 5264,3325 5271,3325 5271,3318 5291,3318 5291,3311 5305,3311 5305,3304 5312,3304 5312,3297 5319,3297 5319,3291 5332,3291 5332,3284 5339,3284 5339,3277 5346,3277 5346,3270 5353,3270 5353,3263 5367,3263 5367,3256 5394,3256 5394,3249 5401,3249 5401,3243 5415,3243 5415,3236 5428,3236 5428,3229 5456,3229 5456,3222 5463,3222 5463,3208 5477,3208 5477,3201 5511,3201 5511,3194 5518,3194 5518,3188 5525,3188 5525,3181 5538,3181 5538,3174 5566,3174 5566,3167 5579,3167 5579,3160 5586,3160 5586,3153 5600,3153 5600,3146 5634,3146 5634,3140 5662,3140 5662,3133 5669,3133 5669,3126 5676,3126 5676,3119 5799,3119 5799,3126 5806,3126 5806,3133 5813,3133 5813,3140 5833,3140 5833,3146 5854,3146 5854,3153 5861,3153 5861,3160 5868,3160 5868,3167 5875,3167 5875,3174 5888,3174 5888,3181 5895,3181 5895,3194 5902,3194 5902,3201 5916,3201 5916,3208 5923,3208 5923,3222 5930,3222 5930,3236 5943,3236 5943,3243 5950,3243 5950,3256 5957,3256 5957,3277 5964,3277 5964,3284 5971,3284 5971,3291 5978,3291 5978,3311 5984,3311 5984,3339 5991,3339 5991,3352 5998,3352 5998,3359 6005,3359 6005,3421 5998,3421 5998,3428 6005,3428 6005,3565 5998,3565 5998,3599 5991,3599 5991,3606 5984,3606 5984,3792 5978,3792 5978,3812 5971,3812 5971,3819 5957,3819 5957,3840 5950,3840 5950,3847 5943,3847 5943,3860 5936,3860 5936,3867 5930,3867 5930,3895 5943,3895 5943,3908 5950,3908 5950,3929 5957,3929 5957,3956 5971,3956 5971,3963 5978,3963 5978,3984 5984,3984 5984,4011 5998,4011 5998,4018 6012,4018 6012,4025 6019,4025 6019,4018 6026,4018 6026,4011 6046,4011 6046,4004 6081,4004 6081,3998 6087,3998 6087,3991 6094,3991 6094,3984 6101,3984 6101,3977 6108,3977 6108,3970 6115,3970 6115,3956 6122,3956 6122,3950 6136,3950 6136,3943 6142,3943 6142,3936 6149,3936 6149,3929 6156,3929 6156,3922 6163,3922 6163,3915 6170,3915 6170,3908 6177,3908 6177,3902 6184,3902 6184,3895 6190,3895 6190,3888 6197,3888 6197,3874 6204,3874 6204,3867 6211,3867 6211,3860 6266,3860 6266,3853 6273,3853 6273,3847 6280,3847 6280,3826 6287,3826 6287,3812 6293,3812 6293,3805 6307,3805 6307,3792 6314,3792 6314,3771 6321,3771 6321,3764 6328,3764 6328,3757 6335,3757 6335,3750 6341,3750 6341,3744 6348,3744 6348,3737 6355,3737 6355,3730 6362,3730 6362,3723 6376,3723 6376,3716 6396,3716 6396,3709 6403,3709 6403,3702 6410,3702 6410,3696 6417,3696 6417,3689 6438,3689 6438,3682 6451,3682 6451,3675 6458,3675 6458,3668 6465,3668 6465,3661 6479,3661 6479,3654 6492,3654 6492,3648 6499,3648 6499,3641 6506,3641 6506,3634 6513,3634 6513,3627 6534,3627 6534,3613 6540,3613 6540,3606 6547,3606 6547,3599 6561,3599 6561,3593 6568,3593 6568,3586 6575,3586 6575,3579 6589,3579 6589,3572 6595,3572 6595,3565 6602,3565 6602,3551 6616,3551 6616,3545 6630,3545 6630,3531 6637,3531 6637,3524 6657,3524 6657,3517 6685,3517 6685,3524 6698,3524 6698,3538 6705,3538 6705,3545 6712,3545 6712,3551 6719,3551 6719,3579 6712,3579 6712,3586 6705,3586 6705,3593 6698,3593 6698,3675 6705,3675 6705,3716 6698,3716 6698,3750 6692,3750 6692,3764 6685,3764 6685,3771 6678,3771 6678,3778 6671,3778 6671,3792 6664,3792 6664,3799 6657,3799 6657,3805 6650,3805 6650,3812 6643,3812 6643,3819 6637,3819 6637,3826 6630,3826 6630,3833 6623,3833 6623,3840 6616,3840 6616,3847 6609,3847 6609,3860 6602,3860 6602,3867 6595,3867 6595,3874 6582,3874 6582,3888 6575,3888 6575,3895 6568,3895 6568,3902 6554,3902 6554,3915 6547,3915 6547,3922 6540,3922 6540,3929 6527,3929 6527,3943 6520,3943 6520,3950 6513,3950 6513,3956 6506,3956 6506,3963 6499,3963 6499,3970 6492,3970 6492,3984 6486,3984 6486,3991 6472,3991 6472,3998 6465,3998 6465,4011 6451,4011 6451,4018 6431,4018 6431,4025 6424,4025 6424,4032 6417,4032 6417,4039 6403,4039 6403,4046 6383,4046 6383,4053 6376,4053 6376,4066 6362,4066 6362,4073 6355,4073 6355,4080 6348,4080 6348,4087 6341,4087 6341,4094 6335,4094 6335,4101 6321,4101 6321,4107 6300,4107 6300,4128 6293,4128 6293,4135 6280,4135 6280,4142 6273,4142 6273,4155 6266,4155 6266,4169 6259,4169 6259,4183 6252,4183 6252,4190 6238,4190 6238,4204 6232,4204 6232,4210 6218,4210 6218,4217 6184,4217 6184,4224 6177,4224 6177,4238 6170,4238 6170,4245 6156,4245 6156,4252 6149,4252 6149,4265 6142,4265 6142,4272 6129,4272 6129,4279 6122,4279 6122,4286 6115,4286 6115,4293 6108,4293 6108,4300 6094,4300 6094,4307 6074,4307 6074,4313 6067,4313 6067,4320 6060,4320 6060,4327 6053,4327 6053,4334 6033,4334 6033,4341 6026,4341 6026,4348 5984,4348 5984,4341 5936,4341 5936,4334 5930,4334 5930,4341 5916,4341 5916,4348 5875,4348 5875,4341 5861,4341 5861,4334 5833,4334 5833,4327 5813,4327 5813,4320 5806,4320 5806,4313 5799,4313 5799,4307 5779,4307 5779,4300 5751,4300 5751,4293 5744,4293 5744,4279 5737,4279 5737,4272 5724,4272 5724,4265 5717,4265 5717,4258 5710,4258 5710,4245 5703,4245 5703,4238 5696,4238 5696,4231 5689,4231 5689,4224 5682,4224 5682,4210 5676,4210 5676,4197 5669,4197 5669,4190 5662,4190 5662,4183 5655,4183 5655,4162 5648,4162 5648,4155 5641,4155 5641,4149 5634,4149 5634,4135 5628,4135 5628,4114 5621,4114 5621,4080 5607,4080 5607,4066 5600,4066 5600,4032 5593,4032 5593,4025 5600,4025 5600,3998 5607,3998 5607,3956 5600,3956 5600,3936 5593,3936 5593,3853 5586,3853 5586,3847 5579,3847 5579,3833 5573,3833 5573,3819 5579,3819 5579,3812 5586,3812 5586,3805 5593,3805 5593,3757 5586,3757 5586,3737 5579,3737 5579,3709 5586,3709 5586,3696 5593,3696 5593,3572 5586,3572 5586,3565 5593,3565 5593,3476 5545,3476 5545,3483 5531,3483 5531,3490 5525,3490 5525,3497 5518,3497 5518,3503 5490,3503 5490,3510 5477,3510 5477,3517 5470,3517 5470,3524 5463,3524 5463,3531 5442,3531 5442,3538 5435,3538 5435,3545 5428,3545 5428,3551 5415,3551 5415,3558 5401,3558 5401,3565 5374,3565 5374,3572 5367,3572 5367,3579 5353,3579 5353,3586 5332,3586 5332,3593 5312,3593 5312,3599 5305,3599 5305,3606 5298,3606 5298,3613 5284,3613 5284,3620 5271,3620 5271,3634 5264,3634 5264,3641 5257,3641 5257,3648 5243,3648 5243,3654 5236,3654 5236,3668 5229,3668 5229,3675 5209,3675 5209,3689 5202,3689 5202,3696 5195,3696 5195,3702 5181,3702 5181,3709 5174,3709 5174,3716 5168,3716 5168,3723 5161,3723 5161,3730 5154,3730 5154,3737 5140,3737 5140,3744 5133,3744 5133,3750 5126,3750 5126,3757 5120,3757 5120,3764 5106,3764 5106,3771 5099,3771 5099,3778 5092,3778 5092,3785 5085,3785 5085,3792 5072,3792 5072,3799 5065,3799 5065,3812 5058,3812 5058,3819 5044,3819 5044,3826 5037,3826 5037,3833 5030,3833 5030,3840 5023,3840 5023,3847 5010,3847 5010,3860 5003,3860 5003,3867 4996,3867 4996,3874 4982,3874 4982,3881 4975,3881 4975,3888 4969,3888 4969,3895 4962,3895 4962,3902 4948,3902 4948,3908 4934,3908 4934,3915 4927,3915 4927,3922 4921,3922 4921,3929 4900,3929 4900,3936 4886,3936 4886,3943 4879,3943 4879,3950 4872,3950 4872,3963 4866,3963 4866,4004 4859,4004 4859,4011 4852,4011 4852,4018 4838,4018 4838,4025 4831,4025 4831,4032 4824,4032 4824,4039 4818,4039 4818,4046 4811,4046 4811,4053 4804,4053 4804,4059 4797,4059 4797,4066 4783,4066 4783,4073 4770,4073 4770,4080 4749,4080 4749,4073 4701,4073 4701,4094 4694,4094 4694,4128 4687,4128 4687,4135 4680,4135 4680,4142 4673,4142 4673,4155 4660,4155 4660,4162 4632,4162 4632,4169 4618,4169 4618,4176 4612,4176 4612,4190 4605,4190 4605,4197 4598,4197 4598,4204 4591,4204 4591,4210 4584,4210 4584,4217 4557,4217 4557,4224 4543,4224 4543,4238 4529,4238 4529,4245 4522,4245 4522,4252 4516,4252 4516,4258 4509,4258 4509,4265 4502,4265 4502,4272 4488,4272 4488,4279 4474,4279 4474,4286 4467,4286 4467,4307 4461,4307 4461,4320 4454,4320 4454,4327 4440,4327 4440,4334 4433,4334 4433,4341 4426,4341 4426,4348 4406,4348 4406,4341 4392,4341 4392,4334 4351,4334 4351,4327 4330,4327 4330,4320 4323,4320 4323,4313 4316,4313 4316,4307 4303,4307 4303,4300 4296,4300 4296,4293 4289,4293 4289,4286 4282,4286 4282,4272 4275,4272 4275,4265 4268,4265 4268,4258 4262,4258 4262,4245 4255,4245 4255,4224 4248,4224 4248,4204 4234,4204 4234,4183 4227,4183 4227,4073 4234,4073 4234,4053 4241,4053 4241,4018 4248,4018 4248,3984 4255,3984 4255,3936 4262,3936 4262,3929 4268,3929 4268,3922 4275,3922 4275,3908 4282,3908 4282,3895 4289,3895 4289,3888 4296,3888 4296,3881 4303,3881 4303,3874 4310,3874 4310,3867 4316,3867 4316,3860 4337,3860 4337,3819 4344,3819 4344,3805 4351,3805 4351,3799 4358,3799 4358,3792 4365,3792 4365,3785 4371,3785 4371,3778 4385,3778 4385,3771 4399,3771 4399,3757 4406,3757 4406,3750 4419,3750 4419,3737 4426,3737 4426,3723 4433,3723 4433,3716 4447,3716 4447,3702 4454,3702 4454,3696 4461,3696 4461,3689 4488,3689 4488,3682 4509,3682 4509,3613 4516,3613 4516,3599 4522,3599 4522,3593 4529,3593 4529,3586 4536,3586 4536,3551 4543,3551 4543,3524 4550,3524 4550,3517 4564,3517 4564,3503 4543,3503 4543,3510 4529,3510 4529,3517 4522,3517 4522,3524 4516,3524 4516,3531 4495,3531 4495,3545 4488,3545 4488,3558 4474,3558 4474,3565 4467,3565 4467,3579 4461,3579 4461,3586 4406,3586 4406,3593 4385,3593 4385,3606 4378,3606 4378,3613 4371,3613 4371,3620 4351,3620 4351,3634 4344,3634 4344,3641 4330,3641 4330,3648 4310,3648 4310,3654 4303,3654 4303,3661 4296,3661 4296,3668 4289,3668 4289,3675 4268,3675 4268,3696 4262,3696 4262,3702 4255,3702 4255,3716 4255,3737 4262,3737 4262,3744 4268,3744 4268,3757 4275,3757 4275,3771 4268,3771 4268,3785 4255,3785 4255,3792 4227,3792 4227,3799 4220,3799 4220,3805 4207,3805 4207,3812 4186,3812 4186,3819 4179,3819 4179,3902 4186,3902 4186,3915 4179,3915 4179,3929 4165,3929 4165,3936 4159,3936 4159,3956 4165,3956 4165,3970 4159,3970 4159,3991 4152,3991 4152,4011 4145,4011 4145,4018 4131,4018 4131,4053 4138,4053 4138,4059 4145,4059 4145,4066 4152,4066 4152,4094 4145,4094 4145,4101 4124,4101 4124,4107 4097,4107 4097,4121 4090,4121 4090,4135 4069,4135 4069,4155 4062,4155 4062,4162 4021,4162 4021,4155 4014,4155 4014,4176 4021,4176 4021,4183 4028,4183 4028,4190 4035,4190 4035,4217 4028,4217 4028,4231 4021,4231 4021,4238 4014,4238 4014,4245 3994,4245 3994,4252 3987,4252 3987,4258 3980,4258 3980,4327 3973,4327 3973,4334 3960,4334 3960,4341 3953,4341 3953,4348 3946,4348 3946,4355 3939,4355 3939,4361 3925,4361 3925,4368 3918,4368 3918,4382 3911,4382 3911,4389 3905,4389 3905,4396 3891,4396 3891,4409 3877,4409 3877,4416 3870,4416 3870,4430 3877,4430 3877,4444 3884,4444 3884,4451 3891,4451 3891,4458 3884,4458 3884,4464 3877,4464 3877,4471 3870,4471 3870,4478 3863,4478 3863,4519 3857,4519 3857,4533 3850,4533 3850,4540 3843,4540 3843,4554 3836,4554 3836,4560 3822,4560 3822,4567 3808,4567 3808,4574 3802,4574 3802,4581 3795,4581 3795,4588 3774,4588 3774,4595 3760,4595 3760,4602 3747,4602 3747,4609 3733,4609 3733,4615 3719,4615 3719,4609 3644,4609 3644,4615 3637,4615 3637,4622 3630,4622 3630,4636 3623,4636 3623,4643 3589,4643 3589,4650 3541,4650 3541,4657 3534,4657 3534,4663 3520,4663 3520,4670 3493,4670 3493,4677 3369,4677 3369,4670 3355,4670 3355,4663 3349,4663 3349,4657 3342,4657 3342,4650 3259,4650 3259,4643 3239,4643 3239,4636 3232,4636 3232,4629 3225,4629 3225,4622 3218,4622 3218,4615 3156,4615 3156,4609 3150,4609 3150,4602 3143,4602 3143,4595 3136,4595 3136,4588 3115,4588 3115,4581 3101,4581 3101,4574 3081,4574 3081,4567 3060,4567 3060,4560 3053,4560 3053,4540 3047,4540 3047,4533 3026,4533 3026,4526 3005,4526 3005,4519 2992,4519 2992,4512 2978,4512 2978,4506 2964,4506 2964,4499 2950,4499 2950,4492 2944,4492 2944,4478 2937,4478 2937,4471 2923,4471 2923,4464 2916,4464 2916,4458 2909,4458 2909,4451 2896,4451 2896,4444 2882,4444 2882,4437 2875,4437 2875,4423 2861,4423 2861,4416 2854,4416 2854,4409 2847,4409 2847,4396 2834,4396 2834,4389 2820,4389 2820,4382 2813,4382 2813,4375 2806,4375 2806,4368 2799,4368 2799,4355 2793,4355 2793,4327 2786,4327 2786,4313 2779,4313 2779,4307 2772,4307 2772,4300 2765,4300 2765,4293 2758,4293 2758,4286 2751,4286 2751,4279 2745,4279 2745,4272 2738,4272 2738,4265 2731,4265 2731,4252 2717,4252 2717,4245 2710,4245 2710,4238 2703,4238 2703,4224 2690,4224 2690,4217 2683,4217 2683,4210 2676,4210 2676,4197 2669,4197 2669,4190 2662,4190 2662,4183 2655,4183 2655,4169 2648,4169 2648,4162 2642,4162 2642,4155 2635,4155 2635,4149 2628,4149 2628,4142 2621,4142 2621,4114 2614,4114 2614,4107 2607,4107 2607,4101 2600,4101 2600,4080 2594,4080 2594,4059 2587,4059 2587,4046 2580,4046 2580,4039 2573,4039 2573,4025 2566,4025 2559,4011 2552,4011 2552,4039 2545,4039 2545,4046 2518,4046 2518,4053 2497,4053 2497,4066 2491,4066 2491,4073 2477,4073 2477,4080 2463,4080 2463,4094 2456,4094 2456,4101 2442,4101 2442,4107 2429,4107 2429,4114 2422,4114 2422,4121 2415,4121 2415,4128 2408,4128 2408,4135 2401,4135 2401,4142 2394,4142 2394,4149 2388,4149 2388,4155 2381,4155 2381,4162 2374,4162 2374,4169 2367,4169 2367,4176 2360,4176 2360,4183 2353,4183 2353,4190 2346,4190 2346,4197 2340,4197 2340,4204 2333,4204 2333,4210 2326,4210 2326,4217 2319,4217 2319,4224 2312,4224 2312,4231 2305,4231 2305,4238 2298,4238 2298,4231 2278,4231 2278,4224 2257,4224 2257,4217 2243,4217 2243,4224 2237,4224 2237,4238 2230,4238 2230,4252 2216,4252 2216,4258 2209,4258 2209,4272 2202,4272 2202,4279 2189,4279 2189,4286 2182,4286 2182,4300 2168,4300 2168,4307 2154,4307 2154,4313 2147,4313 2147,4327 2134,4327 2134,4334 2113,4334 2113,4341 2106,4341 2106,4348 2099,4348 2099,4355 2086,4355 2086,4361 2072,4361 2072,4368 2065,4368 2065,4375 2058,4375 2058,4382 2051,4382 2051,4389 2037,4389 2037,4396 2031,4396 2031,4403 2024,4403 2024,4409 2017,4409 2017,4416 1969,4416 1969,4423 1948,4423 1948,4444 1941,4444 1941,4451 1928,4451 1928,4464 1921,4464 1921,4471 1914,4471 1914,4478 1900,4478 1900,4485 1893,4485 1893,4499 1880,4499 1880,4506 1866,4506 1866,4512 1859,4512 1859,4526 1845,4526 1845,4533 1838,4533 1838,4547 1832,4547 1832,4554 1825,4554 1825,4560 1804,4560 1804,4567 1756,4567 1756,4574 1735,4574 1735,4581 1722,4581 1722,4588 1715,4588 1715,4595 1694,4595 1694,4602 1687,4602 1687,4609 1667,4609 1667,4615 1639,4615 1639,4622 1632,4622 1632,4629 1626,4629 1626,4636 1619,4636 1619,4643 1612,4643 1612,4650 1605,4650 1605,4657 1598,4657 1598,4663 1591,4663 1591,4670 1571,4670 1571,4677 1536,4677 1536,4670 1523,4670 1523,4663 1516,4663 1516,4657 1509,4657 1509,4650 1495,4650 1495,4677 1488,4677 1488,4698 1481,4698 1481,4705 1468,4705 1468,4711 1461,4711 1461,4725 1454,4725 1454,4732 1379,4732 1379,4739 1365,4739 1365,4746 1351,4746 1351,4753 1337,4753 1337,4760 1282,4760 1282,4753 1262,4753 1262,4746 1255,4746 1255,4739 1241,4739 1241,4732 1227,4732 1227,4725 1221,4725 1221,4718 1214,4718 1214,4711 1200,4711 1200,4705 1166,4705 1166,4711 1152,4711 1152,4718 1138,4718 1138,4725 1111,4725 1111,4732 1097,4732 1097,4725 1063,4725 1063,4711 1049,4711 1049,4705 1035,4705 1035,4698 1022,4698 1022,4684 1015,4684 1015,4677 987,4677 987,4670 967,4670 967,4657 960,4657 960,4650 932,4650 932,4643 919,4643 919,4636 912,4636 912,4622 905,4622 905,4595 898,4595 898,4588 891,4588 891,4581 884,4581 884,4567 877,4567 877,4560 871,4560 871,4554 864,4554 864,4547 857,4547 857,4540 850,4540 850,4533 829,4533 829,4526 822,4526 822,4512 816,4512 816,4506 809,4506 809,4499 795,4499 795,4478 788,4478 788,4464 781,4464 781,4458 774,4458 774,4451 768,4451 768,4409 761,4409 761,4368 754,4368 754,4361 747,4361 747,4348 740,4348 740,4320 733,4320 733,4210 740,4210 740,4190 747,4190 747,4176 761,4176 761,4135 768,4135 768,4094 774,4094 774,4087 781,4087 781,4073 788,4073 788,4046 795,4046 795,4004 802,4004 802,3991 809,3991 809,3984 816,3984 816,3970 822,3970 822,3956 829,3956 829,3950 836,3950 836,3943 850,3943 850,3936 857,3936 857,3922 871,3922 871,3915 877,3915 877,3874 884,3874 884,3853 891,3853 891,3840 905,3840 905,3819 912,3819 912,3805 919,3805 919,3799 925,3799 925,3792 932,3792 932,3771 939,3771 939,3757 946,3757 946,3750 953,3750 953,3744 960,3744 960,3737 967,3737 967,3723 974,3723 974,3716 987,3716 987,3709 994,3709 994,3696 1001,3696 1001,3689 1022,3689 1022,3682 1028,3682 1028,3668 1042,3668 1042,3661 1049,3661 1049,3620 1056,3620 1056,3606 1070,3606 1070,3599 1076,3599 1076,3579 1083,3579 1083,3572 1090,3572 1090,3565 1097,3565 1097,3558 1104,3558 1104,3545 1111,3545 1111,3538 1118,3538 1118,3531 1125,3531 1125,3524 1131,3524 1131,3517 1145,3517 1145,3510 1152,3510 1152,3503 1159,3503 1159,3497 1179,3497 1179,3490 1193,3490 1193,3483 1200,3483 1200,3476 1207,3476 1207,3469 1214,3469 1214,3462 1221,3462 1221,3455 1227,3455 1227,3448 1234,3448 1234,3442 1241,3442 1241,3435 1255,3435 1255,3428 1276,3428 1276,3414 1282,3414 1282,3407 1296,3407 1296,3400 1310,3400 1310,3387 1317,3387 1317,3380 1324,3380 1324,3373 1337,3373 1337,3359 1344,3359 1344,3352 1351,3352 1351,3345 1365,3345 1365,3339 1379,3339 1379,3332 1385,3332 1385,3325 1392,3325 1392,3318 1413,3318 1413,3311 1420,3311 1420,3304 1427,3304 1427,3297 1433,3297 1433,3291 1447,3291 1447,3284 1468,3284 1468,3277 1475,3277 1475,3270 1481,3270 1481,3263 1495,3263 1495,3256 1516,3256 1516,3243 1530,3243 1530,3236 1543,3236 1543,3229 1626,3229 1626,3215 1632,3215 1632,3208 1646,3208 1646,3201 1653,3201 1653,3194 1660,3194 1660,3188 1667,3188 1667,3181 1674,3181 1674,3174 1825,3174 1825,3167 1838,3167 1838,3160 1845,3160 1845,3153 1866,3153 1866,3146 1921,3146 1921,3153 1935,3153 1935,3160 1941,3160 1941,3167 1962,3167 1962,3174 2003,3174 2003,3181 2024,3181 2024,3174 2051,3174 2051,3167 2065,3167 2065,3160 2079,3160 2079,3167 2113,3167 2113,3174 2134,3174 2134,3181 2140,3181 2140,3188 2147,3188 2147,3194 2154,3194 2154,3201 2182,3201 2182,3208 2189,3208 2189,3215 2195,3215 2195,3222 2202,3222 2202,3229 2209,3229 2209,3249 2216,3249 2216,3256 2223,3256 2223,3263 2230,3263 2230,3277 2237,3277 2237,3318 2243,3318 2243,3339 2250,3339 2250,3352 2257,3352 2257,3366 2264,3366 2264,3455 2257,3455 2257,3462 2250,3462 2250,3469 2243,3469 2243,3476 2237,3476 2237,3490 2230,3490 2230,3497 2223,3497 2223,3503 2209,3503 2209,3517 2202,3517 2202,3524 2195,3524 2195,3531 2182,3531 2182,3538 2175,3538 2175,3545 2168,3545 2168,3551 2154,3551 2154,3558 2134,3558 2134,3565 2120,3565 2120,3572 2113,3572 2113,3579 2099,3579 2099,3586 2031,3586 2031,3579 2024,3579 2024,3572 2017,3572 2017,3565 2003,3565 2003,3558 1989,3558 1989,3551 1976,3551 1976,3545 1969,3545 1969,3538 1948,3538 1948,3531 1900,3531 1900,3524 1880,3524 1880,3517 1873,3517 1873,3510 1852,3510 1852,3517 1838,3517 1838,3524 1818,3524 1818,3531 1784,3531 1784,3538 1770,3538 1770,3545 1763,3545 1763,3551 1749,3551 1749,3545 1742,3545 1742,3538 1729,3538 1729,3531 1701,3531 1701,3538 1694,3538 1694,3551 1687,3551 1687,3558 1674,3558 1674,3565 1667,3565 1667,3572 1660,3572 1660,3579 1653,3579 1653,3586 1632,3586 1632,3593 1605,3593 1605,3606 1591,3606 1591,3613 1578,3613 1578,3620 1557,3620 1557,3634 1550,3634 1550,3641 1543,3641 1543,3648 1523,3648 1523,3654 1516,3654 1516,3661 1509,3661 1509,3668 1495,3668 1495,3675 1481,3675 1481,3682 1468,3682 1468,3696 1461,3696 1461,3702 1454,3702 1454,3709 1447,3709 1447,3716 1440,3716 1440,3723 1433,3723 1433,3730 1420,3730 1420,3737 1406,3737 1406,3744 1399,3744 1399,3750 1392,3750 1392,3757 1358,3757 1358,3764 1344,3764 1344,3778 1337,3778 1337,3785 1330,3785 1330,3792 1324,3792 1324,3812 1317,3812 1317,3819 1310,3819 1310,3826 1303,3826 1303,3833 1296,3833 1296,3847 1289,3847 1289,3860 1282,3860 1282,3867 1269,3867 1269,3881 1262,3881 1262,3895 1255,3895 1255,3902 1248,3902 1248,3908 1241,3908 1241,3922 1234,3922 1234,3943 1227,3943 1227,3950 1221,3950 1221,3956 1214,3956 1214,3970 1207,3970 1207,3991 1200,3991 1200,3998 1193,3998 1193,4004 1186,4004 1186,4011 1179,4011 1179,4018 1173,4018 1173,4025 1166,4025 1166,4032 1159,4032 1159,4039 1152,4039 1152,4046 1138,4046 1138,4053 1125,4053 1125,4073 1111,4073 1111,4080 1097,4080 1097,4128 1104,4128 1104,4149 1097,4149 1097,4176 1090,4176 1090,4190 1083,4190 1083,4197 1070,4197 1070,4210 1063,4210 1063,4300 1056,4300 1056,4327 1049,4327 1049,4334 1042,4334 1042,4361 1035,4361 1035,4382 1042,4382 1042,4403 1056,4403 1056,4409 1063,4409 1063,4416 1070,4416 1070,4430 1255,4430 1255,4423 1269,4423 1269,4416 1289,4416 1289,4409 1337,4409 1337,4403 1406,4403 1406,4396 1420,4396 1420,4389 1427,4389 1427,4382 1440,4382 1440,4375 1461,4375 1461,4368 1488,4368 1488,4361 1502,4361 1502,4355 1509,4355 1509,4341 1516,4341 1516,4334 1523,4334 1523,4327 1530,4327 1530,4320 1543,4320 1543,4313 1557,4313 1557,4307 1564,4307 1564,4300 1571,4300 1571,4293 1591,4293 1591,4286 1626,4286 1626,4279 1632,4279 1632,4272 1646,4272 1646,4265 1653,4265 1653,4258 1667,4258 1667,4252 1674,4252 1674,4245 1681,4245 1681,4238 1687,4238 1687,4231 1708,4231 1708,4224 1715,4224 1715,4210 1729,4210 1729,4204 1763,4204 1763,4197 1777,4197 1777,4190 1784,4190 1784,4183 1797,4183 1797,4176 1825,4176 1825,4169 1838,4169 1838,4162 1845,4162 1845,4155 1852,4155 1852,4149 1866,4149 1866,4142 1880,4142 1880,4128 1886,4128 1886,4121 1900,4121 1900,4114 1914,4114 1914,4101 1928,4101 1928,4094 1969,4094 1969,4087 1989,4087 1989,4080 1996,4080 1996,4066 2010,4066 2010,4059 2031,4059 2031,4053 2037,4053 2037,4046 2044,4046 2044,4039 2051,4039 2051,4032 2079,4032 2079,4025 2086,4025 2086,4018 2092,4018 2092,4011 2106,4011 2106,4004 2134,4004 2134,3998 2140,3998 2140,3984 2147,3984 2147,3977 2161,3977 2161,3970 2175,3970 2175,3963 2182,3963 2182,3956 2189,3956 2189,3950 2195,3950 2195,3936 2202,3936 2202,3922 2216,3922 2216,3915 2230,3915 2230,3908 2237,3908 2237,3902 2243,3902 2243,3895 2250,3895 2250,3888 2278,3888 2278,3881 2285,3881 2285,3874 2291,3874 2291,3867 2305,3867 2305,3860 2312,3860 2312,3853 2319,3853 2319,3847 2326,3847 2326,3840 2333,3840 2333,3833 2388,3833 2388,3826 2401,3826 2401,3819 2408,3819 2408,3812 2415,3812 2415,3799 2422,3799 2422,3778 2429,3778 2429,3771 2442,3771 2442,3757 2449,3757 2449,3730 2442,3730 2442,3709 2436,3709 2436,3702 2429,3702 2429,3675 2422,3675 2422,3586 2415,3586 2415,3572 2408,3572 2408,3565 2401,3565 2401,3545 2394,3545 2394,3510 2388,3510 2388,3490 2381,3490 2381,3483 2374,3483 2374,3455 2367,3455 2367,3442 2374,3442 2374,3387 2381,3387 2381,3380 2388,3380 2388,3373 2394,3373 2394,3318 2401,3318 2401,3297 2408,3297 2408,3291 2415,3291 2415,3284 2422,3284 2422,3263 2429,3263 2429,3249 2436,3249 2436,3243 2442,3243 2442,3236 2449,3236 2449,3208 2456,3208 2456,3181 2463,3181 2463,3174 2470,3174 2470,3167 2477,3167 2477,3146 2470,3146 2470,3133 2477,3133 2477,3119 2484,3119 2484,3085 2491,3085 2491,3071 2497,3071 2497,3064 2504,3064 2504,3057 2511,3057 2511,3009 2525,3009 2525,3002 2566,3002 2566,2995 2580,2995 2580,2989 2594,2989 2594,2995 2607,2995 2607,3002 2648,3002 2648,3009 2662,3009 2662,3023 2669,3023 2669,3030 2690,3030 2690,3037 2696,3037 2696,3050 2710,3050 2710,3057 2717,3057 2717,3064 2724,3064 2724,3085 2738,3085 2738,3092 2745,3092 2745,3098 2751,3098 2751,3119 2758,3119 2758,3126 2765,3126 2765,3133 2772,3133 2772,3140 2779,3140 2779,3160 2786,3160 2786,3174 2793,3174 2793,3181 2799,3181 2799,3188 2806,3188 2806,3222 2813,3222 2813,3236 2820,3236 2820,3243 2827,3243 2827,3256 2834,3256 2834,3284 2841,3284 2841,3318 2854,3318 2854,3332 2861,3332 2861,3352 2868,3352 2868,3400 2875,3400 2875,3407 2882,3407 2882,3421 2889,3421 2889,3442 2896,3442 2896,3497 2902,3497 2902,3517 2909,3517 2909,3524 2916,3524 2916,3551 2923,3551 2923,3634 2930,3634 2930,3641 2944,3641 2944,3654 2950,3654 2950,3682 2957,3682 2957,3696 2964,3696 2964,3702 2971,3702 2971,3716 2978,3716 2978,3737 2985,3737 2985,3744 2992,3744 2992,3750 2998,3750 2998,3757 3005,3757 3005,3785 3012,3785 3012,3819 3019,3819 3019,3826 3026,3826 3026,3833 3033,3833 3033,3853 3040,3853 3040,3860 3060,3860 3060,3867 3067,3867 3067,3888 3074,3888 3074,3902 3081,3902 3081,3908 3088,3908 3088,3915 3095,3915 3095,3936 3101,3936 3101,3943 3108,3943 3108,3950 3115,3950 3115,3963 3122,3963 3122,3970 3129,3970 3129,3977 3136,3977 3136,3984 3143,3984 3143,3991 3150,3991 3150,3998 3156,3998 3156,4004 3170,4004 3170,4011 3177,4011 3177,4025 3184,4025 3184,4039 3191,4039 3191,4046 3198,4046 3198,4053 3204,4053 3204,4059 3211,4059 3211,4080 3218,4080 3218,4087 3252,4087 3252,4094 3259,4094 3259,4101 3266,4101 3266,4114 3287,4114 3287,4121 3307,4121 3307,4128 3321,4128 3321,4135 3328,4135 3328,4142 3355,4142 3355,4149 3390,4149 3390,4155 3403,4155 3403,4162 3410,4162 3410,4169 3417,4169 3417,4162 3424,4162 3424,4149 3445,4149 3445,4142 3486,4142 3486,4149 3534,4149 3534,4142 3541,4142 3541,4128 3548,4128 3548,4121 3568,4121 3568,4114 3589,4114 3589,4094 3596,4094 3596,4080 3603,4080 3603,4073 3609,4073 3609,4066 3623,4066 3623,4059 3651,4059 3651,4039 3657,4039 3657,4025 3664,4025 3664,4018 3671,4018 3671,4011 3678,4011 3678,4004 3692,4004 3692,3998 3706,3998 3706,3991 3726,3991 3726,3984 3733,3984 3733,3977 3740,3977 3740,3970 3747,3970 3747,3956 3754,3956 3754,3950 3760,3950 3760,3943 3767,3943 3767,3929 3774,3929 3774,3915 3781,3915 3781,3908 3788,3908 3788,3895 3795,3895 3795,3867 3802,3867 3802,3860 3815,3860 3815,3853 3822,3853 3822,3847 3829,3847 3829,3840 3843,3840 3843,3833 3850,3833 3850,3757 3857,3757 3857,3750 3870,3750 3870,3744 3884,3744 3884,3730 3891,3730 3891,3723 3905,3723 3905,3689 3891,3689 3891,3675 3898,3675 3898,3668 3905,3668 3905,3661 3911,3661 3911,3654 3925,3654 3925,3648 3932,3648 3932,3641 3939,3641 3939,3627 3953,3627 3953,3620 3960,3620 3960,3613 3966,3613 3966,3599 3973,3599 3973,3593 3980,3593 3980,3586 3987,3586 3987,3579 3994,3579 3994,3558 4001,3558 4001,3551 4008,3551 4008,3545 4014,3545 4014,3538 4021,3538 4021,3531 4014,3531 4014,3497 4021,3497 4021,3483 4028,3483 4028,3469 4035,3469 4035,3462 4049,3462 4049,3455 4056,3455 4056,3428 4062,3428 4062,3414 4069,3414 4069,3407 4076,3407 4076,3394 4083,3394 4083,3359 4090,3359 4090,3352 4104,3352 4104,3345 4111,3345 4111,3325 4117,3325 4117,3311 4124,3311 4124,3304 4131,3304 4131,3277 4138,3277 4138,3256 4145,3256 4145,3222 4152,3222 4152,3215 4159,3215 4159,3208 4165,3208 4165,3201 4179,3201 4179,3194 4193,3194 4193,3188 4200,3188 4200,3181 4207,3181 4207,3174 4220,3174 4220,3126 4227,3126 4227,3112 4241,3112 4241,3105 4248,3105 4248,3098 4255,3098 4255,3092 4268,3092 4268,3085 4282,3085 4282,3050 4289,3050 4289,3037 4330,3037 4330,3030 4337,3030 4337,3023 4344,3023 4344,3009 4358,3009 4358,3002 4371,3002 4371,2995 4399,2995 4399,3002 4413,3002 4413,3009 4419,3009 4419,3016 4426,3016 4426,3023 4433,3023 4433,3050 4440,3050 4440,3078 4447,3078 4447,3085 4440,3085 4440,3098 4433,3098 4433,3119 4426,3119 4426,3126 4406,3126 4406,3133 4399,3133 4399,3140 4392,3140 4392,3153 4385,3153 4385,3181 4378,3181 4378,3201 4371,3201 4371,3215 4358,3215 4358,3229 4371,3229 4371,3236 4378,3236 4378,3243 4385,3243 4385,3291 4371,3291 4371,3297 4351,3297 4351,3304 4337,3304 4337,3311 4351,3311 4351,3318 4365,3318 4371,3318 4371,3311 4392,3311 4392,3297 4399,3297 4399,3291 4440,3291 4440,3284 4474,3284 4474,3270 4481,3270 4481,3263 4488,3263 4488,3256 4509,3256 4509,3249 4516,3249 4516,3243 4522,3243 4522,3236 4529,3236 4529,3229 4543,3229 4543,3222 4550,3222 4550,3215 4557,3215 4557,3208 4564,3208 4564,3201 4570,3201 4570,3188 4577,3188 4577,3181 4584,3181 4584,3174 4591,3174 4591,3160 4598,3160 4598,3140 4605,3140 4605,3133 4612,3133 4612,3126 4618,3126 4618,3119 4625,3119 4625,3112 4632,3112 4632,3105 4639,3105 "/>
  </g>
 </g>
</svg>
