<?xml version="1.0" encoding="UTF-8"?>
<!DOCTYPE svg PUBLIC "-//W3C//DTD SVG 1.1//EN" "http://www.w3.org/Graphics/SVG/1.1/DTD/svg11.dtd">
<!-- Creator: CorelDRAW X7 -->
<svg xmlns="http://www.w3.org/2000/svg" xml:space="preserve" width="5.501mm" height="5.501mm" version="1.1" style="shape-rendering:geometricPrecision; text-rendering:geometricPrecision; image-rendering:optimizeQuality; fill-rule:evenodd; clip-rule:evenodd"
viewBox="0 0 70 70"
 xmlns:xlink="http://www.w3.org/1999/xlink">
 <defs>
  <style type="text/css">
   <![CDATA[
    .fil0 {fill:#1A1A1A}
   ]]>
  </style>
 </defs>
 <g id="Capa_x0020_1">
  <metadata id="CorelCorpID_0Corel-Layer"/>
  <path class="fil0" d="M26 14l-7 2c-1,0 -1,-1 -1,-1l10 -3c1,2 -4,12 -4,12 -1,1 -2,1 -2,1 0,-1 4,-11 4,-11zm-24 6c0,1 0,1 1,1 -1,0 -1,0 -1,-1zm0 -1l0 1c0,0 0,0 0,0 0,-1 0,-3 1,-3 1,0 1,4 1,5 -1,0 -2,-2 -2,-3zm0 1c0,-1 0,-1 0,-1 0,1 0,1 0,1zm5 19c-2,0 -3,-5 0,-5l0 5 0 0zm1 15c0,0 0,1 0,1l0 -1zm3 2l0 0zm0 0c0,0 0,0 -1,0 0,0 1,0 1,0zm-1 0c-1,0 -2,-1 -2,-2 0,0 0,0 0,0 0,-1 1,-2 2,-3 0,1 0,4 1,5l-1 0zm-2 -2c0,0 0,0 0,0 0,0 0,0 0,0zm9 -2l0 0c0,0 0,0 0,0l0 0zm2 0c0,0 0,0 0,0 0,0 0,0 0,0zm0 0l0 0c0,0 0,-1 0,-1 0,0 0,0 0,1zm0 0c-1,-3 -2,-2 -3,-3 1,0 2,1 3,3zm-10 -3c-1,1 -3,2 -3,4 0,-2 2,-3 3,-4zm-3 4c0,0 0,0 0,0 0,0 0,0 0,0zm22 13c1,0 2,0 3,0 2,-1 3,-1 4,-1 1,-1 2,-1 3,-1 1,0 3,-1 4,-1 0,0 1,0 1,0 1,-1 1,-1 2,-1 2,0 5,-1 7,-2 1,0 2,0 3,0 1,-1 3,-1 4,-1 0,0 1,0 1,-1 2,0 9,-2 9,-2l0 0c0,0 0,0 1,-1 0,0 0,-1 0,-1 0,-1 0,-1 0,-2 -1,0 -1,-1 -1,-2 -1,-2 -1,-3 -2,-5 -1,-4 -2,-7 -3,-10l-2 -5c-1,-2 -1,-4 -2,-5 0,-2 0,-1 0,-3 2,-2 2,-5 2,-7l0 -1c0,0 0,0 0,0 0,-2 -1,-5 -2,-6 0,-4 -14,-14 -23,-4l-5 1c-1,1 -2,1 -4,1 -1,1 -3,1 -4,1 -2,1 -20,4 -21,5l1 3c-5,2 -5,8 1,8 0,1 1,8 1,9 1,-1 3,-1 4,-1 -2,0 -7,1 -7,4l0 0c0,4 7,6 6,14 2,0 3,-1 5,-1 -5,0 -9,2 -8,6l0 0c0,3 5,3 5,4 1,1 1,9 2,10 0,1 1,2 1,2 2,0 12,-3 14,-4zm-21 -11c-1,0 -1,0 -1,0 0,0 0,0 1,0zm0 1c0,0 0,0 0,0 0,0 0,0 0,0zm3 1l0 0zm0 0l0 0c0,0 0,0 0,0zm1 0c0,0 0,0 0,0 0,0 0,0 0,0zm5 -22c0,-1 0,-1 0,-1l0 1zm-1 -1l0 0c0,0 0,0 0,0 0,0 0,0 0,0zm-2 -2l0 0c0,0 0,0 0,0zm-1 -1c-2,0 -4,0 -5,1 1,-1 3,-1 5,-1zm-4 8c0,0 0,0 0,0 0,0 0,0 0,0zm0 0c0,0 0,0 0,0 0,0 0,0 0,0zm-3 -3l0 0c0,0 0,0 0,0 0,0 0,0 0,0 0,0 0,0 0,0 0,0 0,0 0,0zm2 -3c0,0 1,0 1,0 0,0 -1,0 -1,0zm2 -1c1,0 1,0 1,0 0,0 0,0 -1,0zm3 -15l0 0c0,0 0,0 0,0 0,0 0,0 0,0zm-2 -2c0,0 0,0 -1,0 1,0 1,0 1,0zm-5 0c0,0 1,0 2,0 -1,0 -2,0 -2,0zm-3 4c0,0 0,0 0,0l0 0zm0 -1c0,0 0,0 0,0 0,0 0,0 0,0zm8 -1l0 0zm-2 21l0 0c0,0 0,0 0,-1 0,1 0,1 0,1zm0 1c0,0 0,0 0,0 0,0 0,0 0,0zm-1 -5c0,0 0,0 0,0 0,0 0,0 0,0zm4 22c0,0 0,0 0,0 0,0 0,0 0,0zm0 0c0,0 0,0 0,0 0,0 0,0 0,0zm1 -39c0,0 0,0 0,-1l0 1zm-2 -2c-1,-1 -3,-1 -3,-1 1,0 2,0 3,1zm44 -6l-7 7c3,-3 6,-5 8,-9l-5 6c-1,0 -2,1 -2,1 0,0 -1,-4 -1,-4 0,0 0,4 0,5 0,0 -1,0 -1,0 0,1 0,1 0,1l0 0 1 1c0,0 2,-2 2,-2 1,-1 6,-7 6,-7l-1 1zm-41 56c0,0 0,0 0,0 0,0 0,0 0,0l0 0 0 0zm-1 -2l0 -4c0,1 0,3 0,4zm-1 -6c0,0 0,0 0,0 0,0 0,0 0,0zm-7 -40l0 0c0,0 0,0 0,0l0 0zm6 12c0,0 -1,-4 -1,-4l1 4zm-2 -10c0,0 -1,-3 -1,-3l1 3zm1 -1c0,1 1,2 2,2 -1,0 -2,0 -2,-2zm4 0c0,-1 0,-2 -1,-2 1,0 2,1 1,2zm24 -9c-1,0 -1,1 -1,1 0,0 0,1 0,1 1,-3 2,-5 6,-7 -4,2 -5,5 -5,5zm-2 5c1,-3 2,-5 4,-7 2,-2 4,-3 8,-4 4,0 9,3 11,7 0,1 1,3 1,4 1,7 -5,13 -12,13 -3,0 -5,-1 -5,-1 0,0 -4,-3 -4,-4 -2,-1 -3,-4 -3,-8zm24 0c0,0 0,0 0,0l0 0zm0 -1c0,0 0,0 0,-1 0,-1 -1,-1 -1,-2 0,0 0,-1 0,-1 -1,0 -1,-1 -2,-2 2,2 3,4 3,6zm-8 -10c0,0 -1,0 -1,0 0,0 1,0 1,0zm-4 0c-2,0 -3,0 -5,1 2,-1 4,-1 5,-1zm-40 32c0,-1 0,-1 0,-2 0,1 0,1 0,2zm7 13l0 0c0,0 0,0 0,0l0 0zm-1 -14c0,0 0,0 0,0 0,0 0,0 0,0zm0 1c-1,0 0,1 0,1 0,0 -1,-1 0,-1zm0 1c1,1 2,1 3,0 -1,1 -2,1 -3,0zm4 -2c0,0 -1,-1 -2,-1 1,0 2,1 2,1zm-2 -1c0,0 0,0 0,1 0,-1 0,-1 0,-1zm18 -22c-1,2 -1,5 0,7 -1,-4 0,-9 2,-12 -1,1 -2,4 -2,5zm5 16c0,0 0,0 0,0 0,0 0,0 0,0zm0 0c4,2 9,3 14,2l-1 0c-3,1 -7,1 -10,0 -1,-1 -1,-1 -2,-2 0,0 -1,0 -1,0zm23 -8c1,-1 1,-3 1,-4 0,1 0,2 -1,4zm1 -4c0,0 0,0 0,0 0,0 0,0 0,0zm-25 -11c0,1 -1,1 -2,2 1,-1 2,-1 2,-2zm-2 2c0,0 0,0 0,0l0 0zm0 0l0 0c0,0 -2,1 -5,1 2,0 5,-1 5,-1zm34 50c0,0 -1,0 -2,0 1,0 2,0 2,0zm-5 1c-1,0 -2,0 -2,0 1,0 2,0 2,0zm-36 9c0,0 -7,2 -11,3l11 -3zm-15 -1c0,0 0,0 0,0 0,0 0,0 0,0zm7 3c-1,0 -1,0 -1,0l1 0zm-3 0c-1,1 -2,1 -2,1 0,0 1,0 2,-1zm-4 -1l0 -1c0,1 0,1 0,1l0 0zm23 -41c0,0 0,0 1,0 -1,0 -1,0 -2,0 1,0 1,0 1,0zm2 2c3,2 7,3 10,3 -3,0 -6,-1 -10,-3zm19 -1c0,0 0,0 0,0 0,0 0,0 0,0zm2 -3c0,0 1,0 1,0l-1 0zm-52 -10c0,0 0,0 0,0 0,0 0,0 0,0zm-1 -1c0,0 0,0 0,0 0,0 0,0 0,0zm1 0c3,-1 7,-2 11,-3 -5,1 -10,2 -11,3zm10 49c0,0 0,0 0,0 0,0 0,0 0,0zm-2 -8c0,-1 -1,-4 -1,-4 0,0 1,2 1,4zm0 -3c1,0 1,0 1,0 0,0 0,0 -1,0zm1 2c0,1 1,1 2,1 -1,0 -2,0 -2,-1zm4 -1c1,-1 0,-2 -2,-2 3,0 3,1 2,2zm-2 -2c0,1 0,1 0,1 0,0 0,0 0,-1zm-7 6c0,0 0,-1 0,-2 0,1 0,2 0,2zm-1 -5c0,0 0,0 0,0 0,0 0,0 0,0zm0 0c1,-1 2,-1 2,-1 0,0 -1,0 -2,1zm6 7c-1,-2 -1,-5 -2,-6 1,1 1,4 2,6zm45 -12c1,0 1,-2 1,-4 1,3 2,7 2,8 0,0 1,1 1,1l0 0 0 0 0 0 -48 13c0,0 0,-1 -1,-2 3,0 41,-11 45,-16zm9 7c0,0 0,0 -1,0l0 0c0,0 1,0 1,0zm-11 3c-1,0 -2,0 -3,0 1,0 2,0 3,0zm-44 11c-1,0 -1,0 -2,0 0,0 1,0 2,0zm42 -40c0,0 0,0 0,0 0,0 0,0 0,0zm-32 1c-18,5 -14,3 -15,1 2,2 -4,4 15,-1zm8 12c-1,-5 -3,-12 -1,-12 3,-1 3,5 4,11 5,-1 13,-4 13,-2 0,3 -6,4 -12,5 2,8 3,11 1,13 -3,1 -3,-8 -4,-12 -5,2 -12,5 -13,2 0,-1 1,-2 2,-2l10 -3z"/>
 </g>
</svg>
